<mxfile host="app.diagrams.net" agent="Mozilla/5.0 (Windows NT 10.0; Win64; x64) AppleWebKit/537.36 (KHTML, like Gecko) Chrome/130.0.0.0 Safari/537.36" version="25.0.3">
  <diagram name="Trang-1" id="5Kdzmnav-YPvxBu1Bk4z">
    <mxGraphModel grid="0" page="0" gridSize="10" guides="1" tooltips="1" connect="1" arrows="1" fold="1" pageScale="1" pageWidth="827" pageHeight="1169" math="0" shadow="0">
      <root>
        <mxCell id="0" />
        <mxCell id="1" parent="0" />
        <mxCell id="2_ogFBcki_vEt09aaIQf-1" value="Manager" style="shape=umlActor;verticalLabelPosition=bottom;verticalAlign=top;html=1;" vertex="1" parent="1">
          <mxGeometry x="-277" y="321" width="30" height="60" as="geometry" />
        </mxCell>
        <mxCell id="2_ogFBcki_vEt09aaIQf-2" value="&lt;span style=&quot;font-size: 18px;&quot;&gt;KOI Fram Shop&lt;/span&gt;" style="swimlane;whiteSpace=wrap;html=1;startSize=46;" vertex="1" parent="1">
          <mxGeometry x="-113" y="-2" width="710" height="800" as="geometry" />
        </mxCell>
        <mxCell id="2_ogFBcki_vEt09aaIQf-3" value="quản lý hệ thống" style="ellipse;whiteSpace=wrap;html=1;" vertex="1" parent="2_ogFBcki_vEt09aaIQf-2">
          <mxGeometry x="142" y="67" width="120" height="80" as="geometry" />
        </mxCell>
        <mxCell id="2_ogFBcki_vEt09aaIQf-4" value="Quản lý quản lý thông tin sản phẩm" style="ellipse;whiteSpace=wrap;html=1;" vertex="1" parent="2_ogFBcki_vEt09aaIQf-2">
          <mxGeometry x="142" y="175" width="120" height="80" as="geometry" />
        </mxCell>
        <mxCell id="2_ogFBcki_vEt09aaIQf-5" value="quản lý quyền và tài khoản" style="ellipse;whiteSpace=wrap;html=1;" vertex="1" parent="2_ogFBcki_vEt09aaIQf-2">
          <mxGeometry x="132" y="290" width="120" height="80" as="geometry" />
        </mxCell>
        <mxCell id="2_ogFBcki_vEt09aaIQf-6" value="quản lý khách hàng" style="ellipse;whiteSpace=wrap;html=1;" vertex="1" parent="2_ogFBcki_vEt09aaIQf-2">
          <mxGeometry x="136" y="403" width="120" height="80" as="geometry" />
        </mxCell>
        <mxCell id="2_ogFBcki_vEt09aaIQf-7" value="quản lý nhân viên" style="ellipse;whiteSpace=wrap;html=1;" vertex="1" parent="2_ogFBcki_vEt09aaIQf-2">
          <mxGeometry x="130" y="523" width="120" height="80" as="geometry" />
        </mxCell>
        <mxCell id="2_ogFBcki_vEt09aaIQf-8" value="quản lý phản hồi và theo dõi&amp;nbsp;" style="ellipse;whiteSpace=wrap;html=1;" vertex="1" parent="2_ogFBcki_vEt09aaIQf-2">
          <mxGeometry x="132" y="663" width="120" height="80" as="geometry" />
        </mxCell>
        <mxCell id="2_ogFBcki_vEt09aaIQf-9" value="quản lý thông tin và tài khoản" style="ellipse;whiteSpace=wrap;html=1;" vertex="1" parent="2_ogFBcki_vEt09aaIQf-2">
          <mxGeometry x="324" y="344" width="120" height="66" as="geometry" />
        </mxCell>
        <mxCell id="2_ogFBcki_vEt09aaIQf-10" value="thêm" style="ellipse;whiteSpace=wrap;html=1;" vertex="1" parent="2_ogFBcki_vEt09aaIQf-2">
          <mxGeometry x="512" y="328" width="64" height="42" as="geometry" />
        </mxCell>
        <mxCell id="2_ogFBcki_vEt09aaIQf-11" value="sửa&amp;nbsp;" style="ellipse;whiteSpace=wrap;html=1;" vertex="1" parent="2_ogFBcki_vEt09aaIQf-2">
          <mxGeometry x="515" y="375" width="67" height="37" as="geometry" />
        </mxCell>
        <mxCell id="2_ogFBcki_vEt09aaIQf-12" value="xóa" style="ellipse;whiteSpace=wrap;html=1;" vertex="1" parent="2_ogFBcki_vEt09aaIQf-2">
          <mxGeometry x="515" y="420" width="70" height="46" as="geometry" />
        </mxCell>
        <mxCell id="2_ogFBcki_vEt09aaIQf-13" value="quản lý thông tin và tài khoản" style="ellipse;whiteSpace=wrap;html=1;" vertex="1" parent="2_ogFBcki_vEt09aaIQf-2">
          <mxGeometry x="313" y="488" width="120" height="66" as="geometry" />
        </mxCell>
        <mxCell id="2_ogFBcki_vEt09aaIQf-14" value="thêm" style="ellipse;whiteSpace=wrap;html=1;" vertex="1" parent="2_ogFBcki_vEt09aaIQf-2">
          <mxGeometry x="505" y="479" width="64" height="46" as="geometry" />
        </mxCell>
        <mxCell id="2_ogFBcki_vEt09aaIQf-15" value="sửa&amp;nbsp;" style="ellipse;whiteSpace=wrap;html=1;" vertex="1" parent="2_ogFBcki_vEt09aaIQf-2">
          <mxGeometry x="505" y="528" width="67" height="37" as="geometry" />
        </mxCell>
        <mxCell id="2_ogFBcki_vEt09aaIQf-16" value="xóa" style="ellipse;whiteSpace=wrap;html=1;" vertex="1" parent="2_ogFBcki_vEt09aaIQf-2">
          <mxGeometry x="506" y="568" width="70" height="46" as="geometry" />
        </mxCell>
        <mxCell id="2_ogFBcki_vEt09aaIQf-17" value="báo cáo" style="ellipse;whiteSpace=wrap;html=1;" vertex="1" parent="2_ogFBcki_vEt09aaIQf-2">
          <mxGeometry x="331" y="568" width="94" height="60" as="geometry" />
        </mxCell>
        <mxCell id="2_ogFBcki_vEt09aaIQf-19" value="đánh giá và phản hồi" style="ellipse;whiteSpace=wrap;html=1;" vertex="1" parent="2_ogFBcki_vEt09aaIQf-2">
          <mxGeometry x="367" y="644" width="120" height="52" as="geometry" />
        </mxCell>
        <mxCell id="2_ogFBcki_vEt09aaIQf-20" value="xử lý yêu cầu" style="ellipse;whiteSpace=wrap;html=1;" vertex="1" parent="2_ogFBcki_vEt09aaIQf-2">
          <mxGeometry x="369" y="731" width="120" height="44" as="geometry" />
        </mxCell>
        <mxCell id="2_ogFBcki_vEt09aaIQf-27" value="" style="endArrow=open;endSize=12;dashed=1;html=1;rounded=0;exitX=1;exitY=0.5;exitDx=0;exitDy=0;entryX=0;entryY=0.5;entryDx=0;entryDy=0;" edge="1" parent="2_ogFBcki_vEt09aaIQf-2" source="2_ogFBcki_vEt09aaIQf-6" target="2_ogFBcki_vEt09aaIQf-9">
          <mxGeometry width="160" relative="1" as="geometry">
            <mxPoint x="366" y="443" as="sourcePoint" />
            <mxPoint x="416" y="443" as="targetPoint" />
          </mxGeometry>
        </mxCell>
        <mxCell id="2_ogFBcki_vEt09aaIQf-28" value="" style="endArrow=open;endSize=12;dashed=1;html=1;rounded=0;entryX=0;entryY=0.5;entryDx=0;entryDy=0;exitX=1;exitY=0.5;exitDx=0;exitDy=0;" edge="1" parent="2_ogFBcki_vEt09aaIQf-2" source="2_ogFBcki_vEt09aaIQf-7" target="2_ogFBcki_vEt09aaIQf-13">
          <mxGeometry width="160" relative="1" as="geometry">
            <mxPoint x="239" y="558" as="sourcePoint" />
            <mxPoint x="399" y="558" as="targetPoint" />
          </mxGeometry>
        </mxCell>
        <mxCell id="2_ogFBcki_vEt09aaIQf-29" value="" style="endArrow=open;endSize=12;dashed=1;html=1;rounded=0;exitX=0.978;exitY=0.669;exitDx=0;exitDy=0;exitPerimeter=0;entryX=0;entryY=0.5;entryDx=0;entryDy=0;" edge="1" parent="2_ogFBcki_vEt09aaIQf-2" source="2_ogFBcki_vEt09aaIQf-7" target="2_ogFBcki_vEt09aaIQf-17">
          <mxGeometry width="160" relative="1" as="geometry">
            <mxPoint x="276" y="463" as="sourcePoint" />
            <mxPoint x="436" y="463" as="targetPoint" />
          </mxGeometry>
        </mxCell>
        <mxCell id="2_ogFBcki_vEt09aaIQf-51" value="" style="endArrow=open;endSize=12;dashed=1;html=1;rounded=0;entryX=0;entryY=0.5;entryDx=0;entryDy=0;exitX=1;exitY=0.5;exitDx=0;exitDy=0;" edge="1" parent="2_ogFBcki_vEt09aaIQf-2" source="2_ogFBcki_vEt09aaIQf-8" target="2_ogFBcki_vEt09aaIQf-19">
          <mxGeometry width="160" relative="1" as="geometry">
            <mxPoint x="223" y="638" as="sourcePoint" />
            <mxPoint x="383" y="638" as="targetPoint" />
          </mxGeometry>
        </mxCell>
        <mxCell id="2_ogFBcki_vEt09aaIQf-64" value="&lt;span style=&quot;font-size: 12px;&quot;&gt;&amp;lt;&amp;lt;include&amp;gt;&amp;gt;&lt;/span&gt;" style="edgeLabel;html=1;align=center;verticalAlign=middle;resizable=0;points=[];" connectable="0" vertex="1" parent="2_ogFBcki_vEt09aaIQf-51">
          <mxGeometry x="-0.0348" y="7" relative="1" as="geometry">
            <mxPoint x="-4" y="-10" as="offset" />
          </mxGeometry>
        </mxCell>
        <mxCell id="2_ogFBcki_vEt09aaIQf-52" value="" style="endArrow=open;endSize=12;dashed=1;html=1;rounded=0;entryX=0;entryY=0.5;entryDx=0;entryDy=0;exitX=1;exitY=0.613;exitDx=0;exitDy=0;exitPerimeter=0;" edge="1" parent="2_ogFBcki_vEt09aaIQf-2" source="2_ogFBcki_vEt09aaIQf-8" target="2_ogFBcki_vEt09aaIQf-20">
          <mxGeometry width="160" relative="1" as="geometry">
            <mxPoint x="322" y="601" as="sourcePoint" />
            <mxPoint x="482" y="601" as="targetPoint" />
          </mxGeometry>
        </mxCell>
        <mxCell id="2_ogFBcki_vEt09aaIQf-65" value="&lt;span style=&quot;font-size: 12px;&quot;&gt;&amp;lt;&amp;lt;include&amp;gt;&amp;gt;&lt;/span&gt;" style="edgeLabel;html=1;align=center;verticalAlign=middle;resizable=0;points=[];" connectable="0" vertex="1" parent="2_ogFBcki_vEt09aaIQf-52">
          <mxGeometry x="0.0942" y="12" relative="1" as="geometry">
            <mxPoint x="4" y="-4" as="offset" />
          </mxGeometry>
        </mxCell>
        <mxCell id="2_ogFBcki_vEt09aaIQf-53" value="" style="endArrow=open;endSize=12;dashed=1;html=1;rounded=0;exitX=0;exitY=0.5;exitDx=0;exitDy=0;entryX=1;entryY=0;entryDx=0;entryDy=0;" edge="1" parent="2_ogFBcki_vEt09aaIQf-2" source="2_ogFBcki_vEt09aaIQf-14" target="2_ogFBcki_vEt09aaIQf-13">
          <mxGeometry width="160" relative="1" as="geometry">
            <mxPoint x="408" y="492" as="sourcePoint" />
            <mxPoint x="437" y="525" as="targetPoint" />
          </mxGeometry>
        </mxCell>
        <mxCell id="2_ogFBcki_vEt09aaIQf-54" value="" style="endArrow=open;endSize=12;dashed=1;html=1;rounded=0;exitX=0;exitY=0.5;exitDx=0;exitDy=0;entryX=0.975;entryY=0.5;entryDx=0;entryDy=0;entryPerimeter=0;" edge="1" parent="2_ogFBcki_vEt09aaIQf-2" source="2_ogFBcki_vEt09aaIQf-15" target="2_ogFBcki_vEt09aaIQf-13">
          <mxGeometry width="160" relative="1" as="geometry">
            <mxPoint x="515" y="512" as="sourcePoint" />
            <mxPoint x="439" y="522" as="targetPoint" />
          </mxGeometry>
        </mxCell>
        <mxCell id="2_ogFBcki_vEt09aaIQf-55" value="" style="endArrow=open;endSize=12;dashed=1;html=1;rounded=0;exitX=0;exitY=0.5;exitDx=0;exitDy=0;entryX=0.968;entryY=0.78;entryDx=0;entryDy=0;entryPerimeter=0;" edge="1" parent="2_ogFBcki_vEt09aaIQf-2" source="2_ogFBcki_vEt09aaIQf-16" target="2_ogFBcki_vEt09aaIQf-13">
          <mxGeometry width="160" relative="1" as="geometry">
            <mxPoint x="525" y="522" as="sourcePoint" />
            <mxPoint x="449" y="532" as="targetPoint" />
          </mxGeometry>
        </mxCell>
        <mxCell id="2_ogFBcki_vEt09aaIQf-56" value="" style="endArrow=open;endSize=12;dashed=1;html=1;rounded=0;exitX=0;exitY=0.5;exitDx=0;exitDy=0;entryX=1;entryY=0;entryDx=0;entryDy=0;" edge="1" parent="2_ogFBcki_vEt09aaIQf-2" source="2_ogFBcki_vEt09aaIQf-10" target="2_ogFBcki_vEt09aaIQf-9">
          <mxGeometry width="160" relative="1" as="geometry">
            <mxPoint x="509" y="353" as="sourcePoint" />
            <mxPoint x="433" y="363" as="targetPoint" />
          </mxGeometry>
        </mxCell>
        <mxCell id="2_ogFBcki_vEt09aaIQf-57" value="" style="endArrow=open;endSize=12;dashed=1;html=1;rounded=0;exitX=0;exitY=0.5;exitDx=0;exitDy=0;entryX=1;entryY=0.5;entryDx=0;entryDy=0;" edge="1" parent="2_ogFBcki_vEt09aaIQf-2" source="2_ogFBcki_vEt09aaIQf-11" target="2_ogFBcki_vEt09aaIQf-9">
          <mxGeometry width="160" relative="1" as="geometry">
            <mxPoint x="522" y="359" as="sourcePoint" />
            <mxPoint x="437" y="364" as="targetPoint" />
          </mxGeometry>
        </mxCell>
        <mxCell id="2_ogFBcki_vEt09aaIQf-74" value="&lt;span style=&quot;font-size: 12px;&quot;&gt;&amp;lt;&amp;lt;extend&amp;gt;&amp;gt;&lt;/span&gt;" style="edgeLabel;html=1;align=center;verticalAlign=middle;resizable=0;points=[];" connectable="0" vertex="1" parent="2_ogFBcki_vEt09aaIQf-57">
          <mxGeometry x="0.079" y="-12" relative="1" as="geometry">
            <mxPoint x="-1" as="offset" />
          </mxGeometry>
        </mxCell>
        <mxCell id="2_ogFBcki_vEt09aaIQf-58" value="" style="endArrow=open;endSize=12;dashed=1;html=1;rounded=0;exitX=0;exitY=0.5;exitDx=0;exitDy=0;entryX=1;entryY=1;entryDx=0;entryDy=0;" edge="1" parent="2_ogFBcki_vEt09aaIQf-2" source="2_ogFBcki_vEt09aaIQf-12" target="2_ogFBcki_vEt09aaIQf-9">
          <mxGeometry width="160" relative="1" as="geometry">
            <mxPoint x="532" y="369" as="sourcePoint" />
            <mxPoint x="447" y="374" as="targetPoint" />
          </mxGeometry>
        </mxCell>
        <mxCell id="2_ogFBcki_vEt09aaIQf-59" value="&amp;lt;&amp;lt;include&amp;gt;&amp;gt;" style="text;html=1;align=center;verticalAlign=middle;resizable=0;points=[];autosize=1;strokeColor=none;fillColor=none;" vertex="1" parent="2_ogFBcki_vEt09aaIQf-2">
          <mxGeometry x="219" y="384" width="84" height="26" as="geometry" />
        </mxCell>
        <mxCell id="2_ogFBcki_vEt09aaIQf-61" value="&amp;lt;&amp;lt;include&amp;gt;&amp;gt;" style="text;html=1;align=center;verticalAlign=middle;resizable=0;points=[];autosize=1;strokeColor=none;fillColor=none;" vertex="1" parent="2_ogFBcki_vEt09aaIQf-2">
          <mxGeometry x="226" y="502" width="84" height="26" as="geometry" />
        </mxCell>
        <mxCell id="2_ogFBcki_vEt09aaIQf-67" value="&amp;lt;&amp;lt;extend&amp;gt;&amp;gt;" style="text;html=1;align=center;verticalAlign=middle;resizable=0;points=[];autosize=1;strokeColor=none;fillColor=none;" vertex="1" parent="2_ogFBcki_vEt09aaIQf-2">
          <mxGeometry x="435" y="512" width="82" height="26" as="geometry" />
        </mxCell>
        <mxCell id="2_ogFBcki_vEt09aaIQf-71" value="&amp;lt;&amp;lt;extend&amp;gt;&amp;gt;" style="text;html=1;align=center;verticalAlign=middle;resizable=0;points=[];autosize=1;strokeColor=none;fillColor=none;" vertex="1" parent="2_ogFBcki_vEt09aaIQf-2">
          <mxGeometry x="435" y="328" width="82" height="26" as="geometry" />
        </mxCell>
        <mxCell id="2_ogFBcki_vEt09aaIQf-75" value="&amp;lt;&amp;lt;extend&amp;gt;&amp;gt;" style="text;html=1;align=center;verticalAlign=middle;resizable=0;points=[];autosize=1;strokeColor=none;fillColor=none;" vertex="1" parent="2_ogFBcki_vEt09aaIQf-2">
          <mxGeometry x="446" y="394" width="82" height="26" as="geometry" />
        </mxCell>
        <mxCell id="2_ogFBcki_vEt09aaIQf-21" value="" style="endArrow=none;html=1;rounded=0;entryX=0;entryY=0.5;entryDx=0;entryDy=0;" edge="1" parent="1" target="2_ogFBcki_vEt09aaIQf-3">
          <mxGeometry width="50" height="50" relative="1" as="geometry">
            <mxPoint x="-238" y="356" as="sourcePoint" />
            <mxPoint x="-84" y="163" as="targetPoint" />
          </mxGeometry>
        </mxCell>
        <mxCell id="2_ogFBcki_vEt09aaIQf-22" value="" style="endArrow=none;html=1;rounded=0;entryX=0;entryY=0.5;entryDx=0;entryDy=0;" edge="1" parent="1" target="2_ogFBcki_vEt09aaIQf-4">
          <mxGeometry width="50" height="50" relative="1" as="geometry">
            <mxPoint x="-235" y="356" as="sourcePoint" />
            <mxPoint x="317" y="320" as="targetPoint" />
          </mxGeometry>
        </mxCell>
        <mxCell id="2_ogFBcki_vEt09aaIQf-23" value="" style="endArrow=none;html=1;rounded=0;entryX=0;entryY=0.5;entryDx=0;entryDy=0;" edge="1" parent="1" target="2_ogFBcki_vEt09aaIQf-5">
          <mxGeometry width="50" height="50" relative="1" as="geometry">
            <mxPoint x="-234" y="357" as="sourcePoint" />
            <mxPoint x="317" y="320" as="targetPoint" />
          </mxGeometry>
        </mxCell>
        <mxCell id="2_ogFBcki_vEt09aaIQf-24" value="" style="endArrow=none;html=1;rounded=0;entryX=0;entryY=0.5;entryDx=0;entryDy=0;" edge="1" parent="1" target="2_ogFBcki_vEt09aaIQf-6">
          <mxGeometry width="50" height="50" relative="1" as="geometry">
            <mxPoint x="-231" y="359" as="sourcePoint" />
            <mxPoint x="317" y="320" as="targetPoint" />
          </mxGeometry>
        </mxCell>
        <mxCell id="2_ogFBcki_vEt09aaIQf-25" value="" style="endArrow=none;html=1;rounded=0;entryX=0;entryY=0.5;entryDx=0;entryDy=0;" edge="1" parent="1" target="2_ogFBcki_vEt09aaIQf-7">
          <mxGeometry width="50" height="50" relative="1" as="geometry">
            <mxPoint x="-235" y="356" as="sourcePoint" />
            <mxPoint x="-185" y="453" as="targetPoint" />
          </mxGeometry>
        </mxCell>
        <mxCell id="2_ogFBcki_vEt09aaIQf-26" value="" style="endArrow=none;html=1;rounded=0;exitX=0;exitY=0.5;exitDx=0;exitDy=0;" edge="1" parent="1" source="2_ogFBcki_vEt09aaIQf-8">
          <mxGeometry width="50" height="50" relative="1" as="geometry">
            <mxPoint x="267" y="370" as="sourcePoint" />
            <mxPoint x="-236" y="354" as="targetPoint" />
          </mxGeometry>
        </mxCell>
        <mxCell id="2_ogFBcki_vEt09aaIQf-63" value="&amp;lt;&amp;lt;include&amp;gt;&amp;gt;" style="text;html=1;align=center;verticalAlign=middle;resizable=0;points=[];autosize=1;strokeColor=none;fillColor=none;" vertex="1" parent="1">
          <mxGeometry x="147" y="562" width="84" height="26" as="geometry" />
        </mxCell>
        <mxCell id="2_ogFBcki_vEt09aaIQf-66" value="&amp;lt;&amp;lt;extend&amp;gt;&amp;gt;" style="text;html=1;align=center;verticalAlign=middle;resizable=0;points=[];autosize=1;strokeColor=none;fillColor=none;" vertex="1" parent="1">
          <mxGeometry x="308" y="564" width="82" height="26" as="geometry" />
        </mxCell>
        <mxCell id="2_ogFBcki_vEt09aaIQf-70" value="&amp;lt;&amp;lt;extend&amp;gt;&amp;gt;" style="text;html=1;align=center;verticalAlign=middle;resizable=0;points=[];autosize=1;strokeColor=none;fillColor=none;" vertex="1" parent="1">
          <mxGeometry x="297" y="471" width="82" height="26" as="geometry" />
        </mxCell>
      </root>
    </mxGraphModel>
  </diagram>
</mxfile>
